HIERARCHY
ROOT SpineBase
{
  OFFSET 0.000000 0.000000 0.000000
  CHANNELS 6 Xposition Yposition Zposition Zrotation Xrotation Yrotation
  JOINT SpineMid
  {
    OFFSET -0.000000 33.669615 0.000000
    CHANNELS 3 Zrotation Xrotation Yrotation
    JOINT SpineShoulder
    {
      OFFSET 0.636575 25.038049 -0.968832
      CHANNELS 3 Zrotation Xrotation Yrotation
      JOINT Neck
      {
        OFFSET 0.210211 8.263771 -0.719467
        CHANNELS 3 Zrotation Xrotation Yrotation
        JOINT Head
        {
          OFFSET 7.374034 10.606476 2.176128
          CHANNELS 3 Zrotation Xrotation Yrotation
          End Site
          {
            OFFSET 0 0 0
          }
        }
      }
      JOINT ShoulderLeft
      {
        OFFSET -8.261192 -2.210147 -9.951237
        CHANNELS 3 Zrotation Xrotation Yrotation
        JOINT ElbowLeft
        {
          OFFSET -6.868457 -21.376145 -8.627764
          CHANNELS 3 Zrotation Xrotation Yrotation
          JOINT WristLeft
          {
            OFFSET 6.827798 -24.673717 -4.983203
            CHANNELS 3 Zrotation Xrotation Yrotation
            JOINT HandLeft
            {
              OFFSET 3.789116 -6.989262 -0.823241
              CHANNELS 3 Zrotation Xrotation Yrotation
              JOINT HandTipLeft
              {
                OFFSET 2.868248 -6.706310 -1.734310
                CHANNELS 3 Zrotation Xrotation Yrotation
                End Site
                {
                  OFFSET 0 0 0
                }
              }
              JOINT ThumbLeft
              {
                OFFSET 3.261175 0.496745 -1.182041
                CHANNELS 3 Zrotation Xrotation Yrotation
                End Site
                {
                  OFFSET 0 0 0
                }
              }
            }
          }
        }
      }
      JOINT ShoulderRight
      {
        OFFSET 10.143751 -10.637011 16.988069
        CHANNELS 3 Zrotation Xrotation Yrotation
        JOINT ElbowRight
        {
          OFFSET -0.931966 -27.583229 0.535535
          CHANNELS 3 Zrotation Xrotation Yrotation
          JOINT WristRight
          {
            OFFSET 3.968593 -20.215610 -3.324355
            CHANNELS 3 Zrotation Xrotation Yrotation
            JOINT HandRight
            {
              OFFSET -1.234676 -2.929610 -3.036982
              CHANNELS 3 Zrotation Xrotation Yrotation
              JOINT HandTipRight
              {
                OFFSET -0.338733 -5.561501 -1.751171
                CHANNELS 3 Zrotation Xrotation Yrotation
                End Site
                {
                  OFFSET 0 0 0
                }
              }
              JOINT ThumbRight
              {
                OFFSET 2.293380 -2.061593 -1.883897
                CHANNELS 3 Zrotation Xrotation Yrotation
                End Site
                {
                  OFFSET 0 0 0
                }
              }
            }
          }
        }
      }
    }
  }
  JOINT HipLeft
  {
    OFFSET -3.529611 2.341652 -10.989032
    CHANNELS 3 Zrotation Xrotation Yrotation
    JOINT KneeLeft
    {
      OFFSET -8.274124 -27.164088 -4.810260
      CHANNELS 3 Zrotation Xrotation Yrotation
      JOINT AnkleLeft
      {
        OFFSET -7.691089 -34.673985 0.015009
        CHANNELS 3 Zrotation Xrotation Yrotation
        JOINT FootLeft
        {
          OFFSET 9.574051 -4.403527 -9.285517
          CHANNELS 3 Zrotation Xrotation Yrotation
          End Site
          {
            OFFSET 0 0 0
          }
        }
      }
    }
  }
  JOINT HipRight
  {
    OFFSET 5.312076 -0.913415 3.412550
    CHANNELS 3 Zrotation Xrotation Yrotation
    JOINT KneeRight
    {
      OFFSET -4.498495 -30.415647 -3.045255
      CHANNELS 3 Zrotation Xrotation Yrotation
      JOINT AnkleRight
      {
        OFFSET -5.240789 -29.957536 2.820674
        CHANNELS 3 Zrotation Xrotation Yrotation
        JOINT FootRight
        {
          OFFSET -0.806049 -6.409205 -7.610685
          CHANNELS 3 Zrotation Xrotation Yrotation
          End Site
          {
            OFFSET 0 0 0
          }
        }
      }
    }
  }
}
MOTION
Frames: 6
Frame Time: 0.033333
-89.767055 67.366147 345.750308 -1.092083 -1.484647 -55.457117 -1.266045 0.999591 55.426642 -0.778651 0.600288 -0.122396 6.563778 -9.540419 6.048237 0.000000 0.000000 0.000000 -2.446869 -6.724165 3.574091 23.725654 2.895123 -9.427909 2.321746 -31.319512 -9.378672 33.493531 36.603614 -19.877830 0.000000 0.000000 0.000000 0.000000 0.000000 0.000000 11.836994 -1.487866 0.601952 26.610186 68.746678 -14.636736 -0.925234 -22.211750 -37.365612 -36.497230 2.712587 15.511720 0.000000 0.000000 0.000000 0.000000 0.000000 0.000000 4.563512 3.071592 55.590778 -0.920927 -0.236061 0.513747 -3.334415 4.115979 0.603967 0.000000 0.000000 0.000000 2.669205 4.231062 55.077733 -5.191205 -0.031222 0.364065 32.277042 3.935364 -38.370024 0.000000 0.000000 0.000000
-89.853872 67.430904 345.730806 -1.401833 -0.991234 -52.779895 -1.291211 1.113728 52.732016 -0.756647 0.557854 -0.137535 8.000657 -11.385199 7.119394 0.000000 0.000000 0.000000 -3.861062 -8.278616 4.419955 26.658134 4.378031 -10.899906 6.266940 -30.744106 -7.717997 25.341446 29.574457 -15.078301 0.000000 0.000000 0.000000 0.000000 0.000000 0.000000 12.671313 -0.955558 0.638730 22.690744 66.045461 -11.454087 1.625038 -32.544429 -34.030623 -49.696571 11.641591 19.761500 0.000000 0.000000 0.000000 0.000000 0.000000 0.000000 5.467149 3.600398 52.632378 -1.643644 -0.485010 0.756357 -3.589582 4.458178 2.064941 0.000000 0.000000 0.000000 3.409257 3.892149 52.423982 -4.994953 -0.380804 0.414127 31.675636 5.559259 -37.918339 0.000000 0.000000 0.000000
-89.955243 67.519855 345.714900 -1.687237 -0.514262 -49.871238 -1.160868 1.214368 49.812053 -0.744195 0.506910 -0.148276 9.239634 -12.815575 8.013515 0.000000 0.000000 0.000000 -5.011769 -9.546413 5.065718 29.019069 5.357843 -12.156713 8.198091 -30.293515 -6.684689 6.528995 21.548539 -3.039962 0.000000 0.000000 0.000000 0.000000 0.000000 0.000000 12.340802 -1.467495 0.739346 32.947090 68.387975 -19.137571 0.143305 -40.738833 -33.926456 -66.542428 33.703515 29.592657 0.000000 0.000000 0.000000 0.000000 0.000000 0.000000 6.439587 4.010666 49.452495 -2.320948 -0.739763 0.995270 -3.946761 4.853577 3.686838 0.000000 0.000000 0.000000 4.019061 3.538007 49.533964 -4.836810 -0.844896 0.470716 32.541977 8.305889 -39.172627 0.000000 0.000000 0.000000
-90.168652 67.666495 345.762159 -2.038557 -0.147914 -46.604001 -0.867106 1.307155 46.537716 -0.714119 0.463106 -0.154526 10.297032 -13.724232 8.653564 0.000000 0.000000 0.000000 -5.993924 -10.475317 5.594062 30.436758 6.602427 -13.022908 8.756041 -30.875861 -6.411627 -2.724300 18.404462 2.606741 0.000000 0.000000 0.000000 0.000000 0.000000 0.000000 10.796240 -3.053209 0.859624 56.045029 71.850979 -37.792124 -0.282994 -39.665014 -37.924260 -59.867261 52.608362 33.089924 0.000000 0.000000 0.000000 0.000000 0.000000 0.000000 7.399641 4.423029 45.896779 -2.752117 -0.903125 1.202117 -4.602845 5.114512 5.536890 0.000000 0.000000 0.000000 4.456428 3.259251 46.277916 -4.468019 -1.376730 0.537596 29.686548 8.875727 -36.051234 0.000000 0.000000 0.000000
-90.522785 67.849218 345.865305 -2.479265 0.186125 -43.524927 -0.457619 1.342616 43.452667 -0.667515 0.416070 -0.159466 11.305804 -14.455534 9.256367 0.000000 0.000000 0.000000 -6.675743 -11.248773 6.031694 31.421559 8.401258 -13.667173 8.357243 -30.235804 -5.939305 -5.015526 12.600526 3.279773 0.000000 0.000000 0.000000 0.000000 0.000000 0.000000 9.142982 -5.647573 1.002114 91.965240 72.401654 -69.107069 -4.872142 -24.575443 -46.944007 -26.858060 57.249844 25.176932 0.000000 0.000000 0.000000 0.000000 0.000000 0.000000 8.405629 4.869447 42.512031 -3.066687 -1.101969 1.413954 -5.380864 5.310710 7.341876 0.000000 0.000000 0.000000 4.941970 3.059021 43.205143 -4.054531 -1.692456 0.583890 26.719483 9.429503 -32.774609 0.000000 0.000000 0.000000
-90.865274 68.001080 345.998691 -3.036304 0.443963 -40.683126 -0.109998 1.337803 40.602137 -0.640460 0.436589 -0.173352 12.526254 -15.303567 9.988307 0.000000 0.000000 0.000000 -7.243109 -12.229734 6.536621 32.187561 10.211028 -14.372201 10.245680 -29.516363 -5.161579 -5.549607 13.157990 3.142678 0.000000 0.000000 0.000000 0.000000 0.000000 0.000000 7.974415 -7.904815 1.088500 120.780794 68.626918 -94.131985 -0.668586 -16.370737 -53.274217 -21.662989 51.709109 28.249334 0.000000 0.000000 0.000000 0.000000 0.000000 0.000000 9.906415 5.369409 39.355476 -3.434079 -0.978478 1.582557 -6.430049 5.391090 9.058737 0.000000 0.000000 0.000000 5.464453 2.834647 40.391312 -3.532639 -1.720940 0.586572 23.945236 9.962867 -29.703166 0.000000 0.000000 0.000000
